PathFileType	4	(X/Y/Z)	TVC_4_Cal_03_0_static_RCNL2025.trc
DataRate	CameraRate	NumFrames	NumMarkers	Units	OrigDataRate	OrigDataStartFrame	OrigNumFrames
100	100	8	27	mm	100	200	228
Frame#	Time	R_Shoulder			L_Shoulder			C7			J_Notch			R_Elbow			L_Elbow			R_Wrist			L_Wrist			R_Asis			L_Asis			R_Psis			L_Psis			Sacral			Thoracic			Sternum			R_Thigh_Lateral			R_Knee_Lateral			R_Shank_Lateral			R_Ankle_Lateral			R_Heel			R_Toe			L_Thigh_Lateral			L_Knee_Lateral			L_Shank_Lateral			L_Ankle_Lateral			L_Heel			L_Toe		
		X1	Y1	Z1	X2	Y2	Z2	X3	Y3	Z3	X4	Y4	Z4	X5	Y5	Z5	X6	Y6	Z6	X7	Y7	Z7	X8	Y8	Z8	X9	Y9	Z9	X10	Y10	Z10	X11	Y11	Z11	X12	Y12	Z12	X13	Y13	Z13	X14	Y14	Z14	X15	Y15	Z15	X16	Y16	Z16	X17	Y17	Z17	X18	Y18	Z18	X19	Y19	Z19	X20	Y20	Z20	X21	Y21	Z21	X22	Y22	Z22	X23	Y23	Z23	X24	Y24	Z24	X25	Y25	Z25	X26	Y26	Z26	X27	Y27	Z27
200	1.99000000	-243.472900	1345.212402	-57.556084	-207.080078	1345.425049	-418.546204	-280.995941	1391.554688	-229.597534	-132.043259	1271.012695	-237.301575	-230.209488	1133.754761	148.210693	-195.318710	1112.699097	-620.085022	-152.188049	955.568542	271.626076	-82.136292	937.861176	-686.564941	-234.099304	882.861450	-42.844093	-245.079330	866.028442	-397.600159	-378.719818	920.559204	-165.836807	-378.644714	915.634949	-257.423401	-378.682266	918.097076	-211.630104	-360.307709	1149.278198	-233.010941	-100.625427	1078.281006	-226.637405	-260.455475	541.666748	-5.936374	-282.945099	423.781769	-46.918011	-302.554138	281.915283	22.321238	-311.952759	60.745148	-60.478065	-356.670441	51.961571	-109.062180	-179.218765	44.203373	-72.743576	-245.879913	517.812195	-419.306061	-262.025177	429.606354	-379.206238	-262.217926	316.545563	-428.917633	-293.939240	60.803917	-363.369507	-341.383026	49.782497	-319.249084	-158.037506	41.958042	-344.013855
201	2.00000000	-243.384491	1345.243164	-57.625809	-207.094772	1345.394165	-418.647919	-280.860077	1391.667969	-229.694550	-132.034851	1271.036499	-237.301361	-230.114151	1133.724121	148.173019	-195.306808	1112.649658	-620.109009	-152.190636	955.542175	271.609436	-82.115669	937.868286	-686.636139	-234.062439	882.817993	-42.849911	-245.168777	865.931396	-397.563934	-378.793060	920.590942	-165.822662	-378.665192	915.652100	-257.399689	-378.729126	918.121521	-211.611176	-360.307800	1149.277588	-233.010834	-100.683197	1078.201416	-226.631729	-260.484955	541.661621	-5.910548	-282.893738	423.758820	-47.014175	-302.600647	281.838531	22.343084	-311.863953	60.649174	-60.518314	-356.733673	52.004463	-109.074387	-179.188248	44.240150	-72.766785	-245.896164	517.852783	-419.302795	-262.053436	429.607819	-379.199554	-262.191803	316.398376	-428.813660	-293.886841	60.845520	-363.414948	-341.448334	49.794701	-319.199219	-158.028564	42.006149	-344.051727
202	2.01000000	-243.374390	1345.215576	-57.650940	-207.191772	1345.315674	-418.544952	-280.981293	1391.538696	-229.602402	-132.175415	1270.976685	-237.378601	-230.088211	1133.706055	148.148575	-195.303375	1112.587402	-620.151428	-152.230774	955.527985	271.588814	-81.910633	937.912842	-686.590515	-234.238586	882.851624	-42.785847	-245.173309	865.896851	-397.534607	-378.898956	920.584045	-165.840088	-378.834595	915.696716	-257.391541	-378.866776	918.140381	-211.615814	-360.299377	1149.322754	-233.057693	-100.752060	1078.181763	-226.585083	-260.545135	541.588989	-5.869992	-282.901489	423.754089	-47.042393	-302.607544	281.839172	22.343288	-311.892059	60.664215	-60.492729	-356.724487	52.006741	-109.096565	-179.197311	44.256218	-72.757324	-245.885010	517.868774	-419.326294	-262.102112	429.609955	-379.161926	-262.240387	316.382660	-428.899963	-294.038605	60.759911	-363.312897	-341.364349	49.783356	-319.287903	-158.037842	41.995049	-344.042847
203	2.02000000	-243.377792	1345.214111	-57.650139	-207.199829	1345.309937	-418.541107	-280.926270	1391.580811	-229.648758	-132.239304	1270.890869	-237.329590	-230.114136	1133.632690	148.166031	-195.361237	1112.627197	-620.144165	-152.292877	955.478668	271.580246	-81.913754	937.932220	-686.649048	-234.311279	882.893494	-42.798016	-245.266800	865.846252	-397.423096	-378.936462	920.612122	-165.811478	-378.849396	915.696594	-257.358490	-378.892929	918.154358	-211.584984	-360.359467	1149.317627	-233.091171	-100.849182	1078.061768	-226.671448	-260.629181	541.491211	-5.894374	-282.880798	423.750000	-47.059025	-302.684845	281.802765	22.295984	-312.057648	60.676270	-60.537220	-356.718658	52.019382	-109.101631	-179.202850	44.242447	-72.849869	-245.974777	517.828125	-419.287689	-262.165405	429.608521	-379.176849	-262.365356	316.444031	-428.817688	-293.980591	60.838020	-363.393402	-341.366791	49.777229	-319.276825	-158.051712	42.010937	-344.036591
204	2.03000000	-243.376480	1345.191162	-57.653648	-207.151352	1345.232910	-418.549011	-280.973236	1391.554077	-229.735321	-132.271805	1270.811401	-237.364624	-230.169525	1133.661865	148.188782	-195.397125	1112.636841	-620.209839	-152.262337	955.450165	271.565536	-81.939835	938.018280	-686.803101	-234.275589	882.839539	-42.829762	-245.270981	865.830933	-397.410034	-378.925262	920.596802	-165.824326	-378.844788	915.675903	-257.386780	-378.885025	918.136353	-211.605553	-360.393188	1149.361572	-233.064346	-100.946754	1078.024536	-226.584961	-260.741455	541.451294	-5.912698	-282.867065	423.751892	-47.041401	-302.759094	281.899109	22.309843	-312.037567	60.603420	-60.559914	-356.718933	52.020164	-109.101181	-179.194870	44.227875	-72.781944	-246.061752	517.860474	-419.327209	-262.195923	429.531128	-379.195251	-262.403381	316.425842	-428.766754	-293.885162	60.825092	-363.454926	-341.359436	49.778481	-319.276428	-158.050766	42.011257	-344.025574
205	2.04000000	-243.362854	1345.185547	-57.596684	-207.149765	1345.280640	-418.564911	-280.919525	1391.511597	-229.643341	-132.284424	1270.799438	-237.319901	-230.150238	1133.648438	148.188614	-195.370575	1112.602661	-620.251709	-152.214478	955.445984	271.605339	-81.855709	937.984589	-686.826996	-234.308380	882.809021	-42.819695	-245.356140	865.874756	-397.503754	-379.004974	920.569275	-165.771225	-378.857788	915.640198	-257.363586	-378.931381	918.104736	-211.567406	-360.469421	1149.373169	-233.023468	-101.084724	1077.941406	-226.652939	-260.650330	541.500427	-5.903198	-282.908691	423.711182	-47.024269	-302.774750	281.820496	22.336126	-311.946014	60.580830	-60.499207	-356.749634	51.943645	-109.067413	-179.184555	44.256809	-72.780922	-246.069641	517.866028	-419.325043	-262.206299	429.495178	-379.164642	-262.432037	316.545868	-428.735962	-294.030151	60.856197	-363.441376	-341.452332	49.753002	-319.193268	-158.080978	42.027527	-344.037262
206	2.05000000	-243.337860	1345.125732	-57.672226	-207.113037	1345.239258	-418.614288	-280.831848	1391.520874	-229.673721	-132.193008	1270.788330	-237.424713	-230.159149	1133.671143	148.208450	-195.335159	1112.613525	-620.323303	-152.217247	955.493805	271.529930	-81.870171	938.076630	-686.903656	-234.335251	882.799438	-42.803394	-245.322769	865.890198	-397.553528	-379.080414	920.613037	-165.796158	-378.925018	915.631958	-257.304749	-379.002716	918.122498	-211.550453	-360.473969	1149.390869	-233.021957	-101.136086	1077.874146	-226.602249	-260.566101	541.528442	-5.893747	-282.897980	423.701813	-47.019764	-302.711304	281.790527	22.301580	-311.925049	60.506107	-60.575314	-356.708893	51.918663	-109.050156	-179.233231	44.203781	-72.734596	-246.059341	517.855042	-419.327606	-262.260498	429.495605	-379.231628	-262.447113	316.222412	-428.809937	-293.976837	60.759892	-363.401062	-341.386200	49.716400	-319.259430	-158.047852	41.932823	-344.016174
207	2.06000000	-243.228821	1345.201416	-57.583584	-207.128601	1345.216553	-418.601715	-280.824036	1391.538574	-229.677780	-132.211029	1270.679321	-237.465714	-230.137329	1133.673584	148.173721	-195.436447	1112.637207	-620.320984	-152.255356	955.517426	271.554054	-81.957485	938.118439	-687.005859	-234.354614	882.813293	-42.805542	-245.407745	865.878540	-397.495453	-379.083984	920.606018	-165.821915	-378.935150	915.601257	-257.322754	-379.009567	918.103638	-211.572334	-360.470917	1149.409180	-233.020935	-101.269630	1077.811035	-226.704025	-260.470947	541.503418	-5.840319	-282.878265	423.703888	-47.013309	-302.704407	281.862213	22.307514	-311.913727	60.595879	-60.524189	-356.737854	51.984798	-109.046852	-179.251556	44.248371	-72.720291	-246.075226	517.859192	-419.317902	-262.316132	429.519287	-379.228882	-262.610016	316.232574	-428.849274	-294.034912	60.858074	-363.416107	-341.370789	49.713783	-319.273315	-158.070862	42.009918	-344.048035
